<svg xmlns="http://www.w3.org/2000/svg" xmlns:xlink="http://www.w3.org/1999/xlink" width="16.677" height="19.802" viewBox="0 0 16.677 19.802">
  <defs>
    <clipPath id="clip-path">
      <rect id="Rectangle_92" data-name="Rectangle 92" width="16.677" height="19.802" fill="#1f2934"/>
    </clipPath>
  </defs>
  <g id="Group_330" data-name="Group 330" clip-path="url(#clip-path)">
    <path id="Path_550" data-name="Path 550" d="M11.185,13.676H5.5a3.972,3.972,0,0,0-3.972,3.972v.63H15.157v-.63a3.991,3.991,0,0,0-1.773-3.31,3.852,3.852,0,0,0-.686-.365,3.786,3.786,0,0,0-.734-.221,3.908,3.908,0,0,0-.778-.076m.473-1.5h0a5.952,5.952,0,0,1,.6.084,5.393,5.393,0,0,1,1.027.313,5.542,5.542,0,0,1,3.4,5.079V19.04a.762.762,0,0,1-.762.762H.762A.764.764,0,0,1,0,19.04V17.648a5.525,5.525,0,0,1,3.4-5.079,5.6,5.6,0,0,1,1.625-.4,6.539,6.539,0,1,1,6.636,0M8.341,1.52h0a5.019,5.019,0,0,0-1.95,9.644,5.019,5.019,0,0,0,6.968-4.626A5.031,5.031,0,0,0,8.341,1.52" transform="translate(0 -0.002)" fill="#1f2934"/>
  </g>
</svg>
