<svg xmlns="http://www.w3.org/2000/svg" xmlns:xlink="http://www.w3.org/1999/xlink" width="109.203" height="109.203" viewBox="0 0 109.203 109.203">
  <defs>
    <clipPath id="clip-path">
      <rect id="Icon_-_Bag_Background_Mask_" data-name="Icon - Bag (Background/Mask)" width="109.203" height="109.203" fill="none"/>
    </clipPath>
  </defs>
  <g id="Icon_-_Bag" data-name="Icon - Bag" clip-path="url(#clip-path)">
    <path id="Vector" d="M55.177,81.9h-33c-8.468,0-14.369-2.075-18.041-6.342C.452,71.287-.78,64.874.476,56.5L3.542,32.682c2.01-10.879,9.388-14.739,15.1-14.739A20.044,20.044,0,0,1,38.576,0h.083A20.064,20.064,0,0,1,58.577,17.94l.292,0c5.734,0,12.7,3.8,15.053,14.481l3.117,24.138c1.12,7.809-.281,14.041-4.165,18.523C69,79.546,62.884,81.9,55.177,81.9ZM18.637,23.87c-1.745,0-7.567.7-9.242,9.733L6.346,57.317c-.989,6.632-.22,11.47,2.285,14.38,2.478,2.877,6.91,4.275,13.551,4.275h33c4.145,0,9.8-.828,13.213-4.77,2.711-3.126,3.646-7.783,2.776-13.842l-3.081-23.92a14.665,14.665,0,0,0-3.434-7,7.892,7.892,0,0,0-5.783-2.575ZM38.586,5.928A14.109,14.109,0,0,0,24.62,17.94l27.98,0A14.13,14.13,0,0,0,38.647,5.928Z" transform="translate(17.064 13.651)" fill="#1f2933"/>
  </g>
</svg>
