<?xml version="1.0" encoding="utf-8"?>
<!-- Generator: Adobe Illustrator 27.9.0, SVG Export Plug-In . SVG Version: 6.00 Build 0)  -->
<svg version="1.1" id="Layer_1" xmlns="http://www.w3.org/2000/svg" xmlns:xlink="http://www.w3.org/1999/xlink" x="0px" y="0px"
	 viewBox="0 0 194 80" style="enable-background:new 0 0 194 80;" xml:space="preserve">
<g>
	<g>
		<path d="M26.5,62.7c-5-2.7-11.6-5.7-11.6-13c0-7,6.1-9.9,12.5-9.9c8,0,11.9,4.6,13.3,8.5l-2.5,5.8c-0.4-6.7-3.3-13.2-9.4-13.2
			c-3.8,0-6.7,3-6.7,7.1c0,3.8,3.1,6.1,7,8.4c5.4,3.3,12.6,5.7,12.6,12.4c0,6.1-6.1,10.3-14.3,10.3c-7.8,0-11.2-4-13.9-8.5l2.5-5.8
			C16.3,71.5,19.2,78,26.7,78c4.6,0,7.6-2.8,7.6-7.3C34.4,66.9,30.9,65.1,26.5,62.7z"/>
		<path d="M67.9,74.8c-2.2,2.7-5.7,4.2-10.6,4.2C47.8,79,43,73.4,43,65.3s5.1-13.6,14.9-13.6c5.9,0,10.1,2,10.1,7.3
			c0,5.1-4,7.7-14.4,7.7c-2.4,0-3.2,1.4-3.1,2.6c1,5.3,3.9,8.7,8.7,8.7c3.1,0,6-1.4,8-3.9L67.9,74.8z M53.7,65.7c6.6,0,8-4.1,8-7.8
			c0-3.2-1.2-5.2-3.8-5.2c-4.3,0-7.7,5-7.7,12.6c0,0.6,0,1.3,0,1.9C50.9,66.3,52,65.7,53.7,65.7z"/>
		<path d="M75.7,61.7c0.1-6.8,4.1-10,11.4-10c3.5,0,8.1,0.8,8.1,6.5v13c0,5.8,1.4,6.4,2,7.3H82.8c-9.9,0-12.5-2.2-12.5-6.5
			c0-10.4,17.9-5.2,17.9-13c0-3.6-1.5-6.4-4.3-6.3c-3.9,0.1-3.9,5.6-1.7,9L75.7,61.7L75.7,61.7z M88.2,77.5V62
			c-2.8,3.9-11.5,2.1-11.5,10.1c0,2.7,0.9,5.3,6.1,5.3H88.2z"/>
		<path d="M128.7,73.7l-1.3,4.7H99.7c1.1-0.8,2.6-1.4,5.6-7.2l12.1-23.7c2-3.9,2.9-6.4,2-6.4h-9.6c-5.8,0-7.7,2.6-8.6,3.8l1.3-4.7
			h27.7c-1.1,0.9-2.8,1.5-5.8,7.3l-12.1,23.7c-2,3.9-2.8,6.3-1.9,6.3h9.7C125.9,77.5,127.8,74.9,128.7,73.7z"/>
		<path d="M157,74.8c-2.2,2.7-5.7,4.2-10.6,4.2c-9.5,0-14.3-5.6-14.3-13.7s5.1-13.6,14.9-13.6c5.9,0,10.1,2,10.1,7.3
			c0,5.1-4,7.7-14.4,7.7c-2.4,0-3.2,1.4-3.1,2.6c1,5.3,3.9,8.7,8.7,8.7c3.1,0,6-1.4,8-3.9L157,74.8z M142.7,65.7c6.6,0,8-4.1,8-7.8
			c0-3.2-1.2-5.2-3.8-5.2c-4.3,0-7.7,5-7.7,12.6c0,0.6,0,1.3,0,1.9C139.9,66.3,141.1,65.7,142.7,65.7z"/>
		<path d="M170.1,52.3c0,2.4,0.8,3.2,2.1,3.2c2.9,0,8.3-3.8,13.4-3.8c2.3,0,3.8,0.7,3.8,6.4v13.1c0,5.8,1.4,6.4,2,7.3h-11
			c0.7-0.8,2-1.4,2-7.2V59.4c0-4.3,0-5.7-1.2-5.7c-1.9,0-6.7,2.9-9.5,2.9c-0.7,0-1.3-0.2-1.6-0.6v15.2c0,5.8,1.4,6.4,2,7.3h-11
			c0.7-0.8,2-1.4,2-7.3V59.6c0-5.8-1.3-6.5-2-7.3L170.1,52.3L170.1,52.3L170.1,52.3z"/>
	</g>
	<g>
		<path d="M17.3,12.6C8.4,12.6,2.5,18,2.5,26.1c0,7.9,5.5,13.3,13.8,13.7c0.1-0.1,0.1-0.1,0.2-0.1c0.5-0.3,1-0.6,1.5-0.9
			c-0.3,0-0.5,0.1-0.8,0.1c-4.3,0-7.5-5.5-7.5-12.7c0-7.2,3.2-12.6,7.5-12.6c4.3,0,7.5,5.4,7.5,12.6c0,5.4-1.8,9.9-4.5,11.7
			c2-0.7,4.3-1,6.7-1H27c3.1-2.4,5-6.1,5-10.7C32,18,26.1,12.6,17.3,12.6z"/>
		<path d="M58.1,20.4c0-3.6-0.1-7.9-3.8-7.9c-3.3,0-6.6,3.5-8.4,3.5c-0.8,0-1.3-0.7-1.3-2.9v-0.1h-9c0.7,0.8,2,1.5,2,7.3V32
			c0,4.3-0.7,5.8-1.3,6.6c0.4,0.2,0.9,0.5,1.3,0.7h9.1c-0.7-0.9-2-1.5-2-7.3V16.8c0.3,0.2,0.6,0.3,1,0.3c2.3,0,6-3.5,7.9-3.5
			c1.6,0,0.7,3.1-1.9,6.9L58.1,20.4L58.1,20.4z"/>
		<path d="M86.8,32V1h-9c0.7,0.8,2,1.4,2,7.2c0,2.4-1.3,4.8-5.1,4.8c-9.9,0-14.9,5.4-14.9,13.2s5.1,13,14.9,13h14.1
			C88,38.5,86.8,37.8,86.8,32z M79.8,38.4h-5.1c-4.8,0-7.7-4.8-7.7-12.1S69.8,14,74.7,14c2.5,0,4.2-1.1,5.1-2.5V38.4z"/>
		<path d="M102.1,27.5c10.3,0,14.4-2.6,14.4-7.7c0-5.3-4.2-7.3-10.1-7.3c-9.8,0-14.9,5.4-14.9,13.6c0,6.3,2.9,11.1,8.6,12.9
			c0.4-1.1,1.4-1.8,2.6-1.9c-1.9-1.5-3.1-3.9-3.6-7C98.9,28.9,99.8,27.5,102.1,27.5z M98.7,28c0-0.6,0-1.3,0-1.9
			c0-7.5,3.4-12.6,7.7-12.6c2.7,0,3.8,2,3.8,5.2c0,3.7-1.4,7.8-8,7.8C100.5,26.5,99.3,27.1,98.7,28z"/>
		<path d="M142.9,20.4c0-3.6-0.1-7.9-3.8-7.9c-3.3,0-6.6,3.5-8.4,3.5c-0.8,0-1.3-0.7-1.3-2.9v-0.1h-9c0.7,0.8,2,1.5,2,7.3V32
			c0,2.5-0.2,4.1-0.6,5.1h8.2c-0.3-1-0.6-2.6-0.6-5.1V16.8c0.3,0.2,0.6,0.3,1,0.3c2.3,0,6-3.5,7.9-3.5c1.6,0,0.7,3.1-1.9,6.9
			L142.9,20.4L142.9,20.4z"/>
	</g>
</g>
</svg>
